<!DOCTYPE svg PUBLIC "-//W3C//DTD SVG 20010904//EN" "http://www.w3.org/TR/2001/REC-SVG-20010904/DTD/svg10.dtd">
<svg version="1.0" xmlns="http://www.w3.org/2000/svg" width="281px" height="83px" viewBox="0 0 2810 830" preserveAspectRatio="xMidYMid meet">
<g id="layer101" fill="#000000" stroke="none">
 <path d="M130 780 l0 -50 -65 0 -65 0 0 -365 0 -365 1335 0 1335 0 0 50 0 50 70 0 70 0 0 365 0 365 -1340 0 -1340 0 0 -50z m2660 -315 l0 -345 -60 0 -60 0 0 305 0 305 -1260 0 -1260 0 0 40 0 40 1320 0 1320 0 0 -345z m-140 -100 l0 -345 -1315 0 -1315 0 0 345 0 345 1315 0 1315 0 0 -345z"/>
 <path d="M1844 566 c-55 -24 -103 -108 -73 -127 8 -5 28 -9 44 -9 23 0 34 7 47 30 29 51 97 62 141 23 40 -37 18 -62 -76 -90 -85 -25 -123 -49 -142 -89 -29 -62 -2 -134 60 -160 44 -18 136 -18 179 0 40 17 76 60 76 92 0 21 -5 24 -41 24 -33 0 -47 -6 -69 -30 -29 -32 -52 -36 -94 -20 -28 10 -35 40 -13 58 6 5 39 18 72 27 92 27 130 50 146 87 31 74 6 146 -62 180 -41 22 -150 23 -195 4z"/>
 <path d="M2244 566 c-55 -24 -103 -108 -73 -127 8 -5 28 -9 44 -9 23 0 34 7 47 30 29 51 97 62 141 23 40 -37 18 -62 -76 -90 -85 -25 -123 -49 -142 -89 -29 -62 -2 -134 60 -160 44 -18 136 -18 179 0 40 17 76 60 76 92 0 21 -5 24 -41 24 -33 0 -47 -6 -69 -30 -29 -32 -52 -36 -94 -20 -28 10 -35 40 -13 58 6 5 39 18 72 27 92 27 130 50 146 87 31 74 6 146 -62 180 -41 22 -150 23 -195 4z"/>
 <path d="M320 390 l0 -180 -65 0 -65 0 0 -35 0 -35 175 0 175 0 0 35 0 35 -65 0 -65 0 0 180 0 180 -45 0 -45 0 0 -180z"/>
 <path d="M530 530 l0 -40 50 0 50 0 0 40 0 40 -50 0 -50 0 0 -40z"/>
 <path d="M720 355 l0 -215 69 0 68 0 34 130 c19 72 37 130 41 130 5 0 8 -5 8 -12 0 -6 14 -65 31 -130 l32 -118 68 0 69 0 0 215 0 215 -45 0 -45 0 -1 -147 -1 -148 -36 148 -36 147 -46 0 -47 0 -32 -137 c-18 -76 -34 -142 -36 -148 -2 -5 -4 56 -4 138 l-1 147 -45 0 -45 0 0 -215z"/>
 <path d="M1220 355 l0 -215 50 0 50 0 0 180 0 180 105 0 105 0 0 35 0 35 -155 0 -155 0 0 -215z"/>
 <path d="M1590 530 l0 -40 50 0 50 0 0 40 0 40 -50 0 -50 0 0 -40z"/>
 <path d="M530 300 l0 -40 50 0 50 0 0 40 0 40 -50 0 -50 0 0 -40z"/>
 <path d="M1590 300 l0 -40 50 0 50 0 0 40 0 40 -50 0 -50 0 0 -40z"/>
 </g>

</svg>